<svg xmlns="http://www.w3.org/2000/svg" width="1600" height="1200" viewBox="0 0 1600 1200" role="img" aria-labelledby="title desc"><title id="title">A22</title><desc id="desc">Original hypothesis illustration. Arrows show the labeled proposed comparison, not observed results. Cell counts and shapes are qualitative. Read the full caption and sources.</desc>
<rect x="0" y="0" width="1600" height="1200" rx="0" fill="white" stroke="white" stroke-width="2"/>
<text x="60" y="45" font-family="Segoe UI,Arial,sans-serif" font-size="18" font-weight="600" text-anchor="start" fill="#168F91">A22  /  HYPOTHESIS AND RIVAL</text>
<text x="1540" y="45" font-family="Segoe UI,Arial,sans-serif" font-size="17" font-weight="600" text-anchor="end" fill="#BC653D">SPECIFICATION GAP REMAINS</text>
<text x="60" y="101.0" font-family="Segoe UI,Arial,sans-serif" font-size="37" font-weight="600" text-anchor="start" fill="#20323C">Does NKX2-1 loss reduce actual fibroblast chemokine output?</text>
<text x="60" y="165" font-family="Segoe UI,Arial,sans-serif" font-size="22" font-weight="400" text-anchor="start" fill="#20323C">Loss of NKX2-1-dependent AT2 identity may lower actual fibroblast chemokine output within comparable fibroblast states beyond a change in viable</text>
<text x="60" y="194" font-family="Segoe UI,Arial,sans-serif" font-size="22" font-weight="400" text-anchor="start" fill="#20323C">epithelial source amount. The RNA direction is already published. The proposed extension asks whether it reaches extracellular protein output; the</text>
<text x="60" y="223" font-family="Segoe UI,Arial,sans-serif" font-size="22" font-weight="400" text-anchor="start" fill="#20323C">primary chemokine protein and collection/recovery definition have not been nominated, and broad AT2-score generalization failed.</text>
<rect x="60" y="312" width="1480" height="496" rx="18" fill="#FAFBFC" stroke="#D9E1E7" stroke-width="2"/>
<text x="85" y="340" font-family="Segoe UI,Arial,sans-serif" font-size="19" font-weight="600" text-anchor="start" fill="#7951B2">PROTEIN-OUTPUT EXTENSION OF THE PUBLISHED RNA EFFECT</text>
<rect x="211.8" y="379.5" width="86.4" height="81.0" rx="17.55" fill="#E986A3" stroke="#20323C" stroke-width="2"/>
<ellipse cx="260.4" cy="422.7" rx="18.900000000000002" ry="16.200000000000003" fill="#8F6DA8" stroke="#20323C" stroke-width="1.5"/>
<ellipse cx="233.4" cy="401.1" rx="5.4" ry="5.4" fill="#FBE7C2" stroke="#FBE7C2" stroke-width="2"/>
<text x="255.0" y="495" font-family="Segoe UI,Arial,sans-serif" font-size="22" font-weight="600" text-anchor="middle" fill="#20323C">NKX2-1-dependent AT2 identity loss</text>
<polygon points="694.7,459.15 764.9,407.85 812.15,399.75 909.35,379.5 844.55,433.5 795.95,444.3" fill="#8FC0AA" stroke="#20323C" stroke-width="2"/>
<ellipse cx="800" cy="422.7" rx="17.55" ry="9.450000000000001" fill="#80699C" stroke="#20323C" stroke-width="1"/>
<text x="800.0" y="495" font-family="Segoe UI,Arial,sans-serif" font-size="22" font-weight="600" text-anchor="middle" fill="#20323C">Comparable fibroblast state</text>
<polygon points="1285,430 1295,414 1315,418 1323,435 1305,451" fill="#D3E5E8" stroke="#168F91" stroke-width="2"/>
<polygon points="1327,406 1337,390 1357,394 1365,411 1347,427" fill="#D3E5E8" stroke="#7951B2" stroke-width="2"/>
<polygon points="1370,433 1380,417 1400,421 1408,438 1390,454" fill="#D3E5E8" stroke="#168F91" stroke-width="2"/>
<text x="1345" y="428" font-family="Segoe UI,Arial,sans-serif" font-size="30" font-weight="600" text-anchor="middle" fill="#7951B2">?</text>
<text x="1345.0" y="495" font-family="Segoe UI,Arial,sans-serif" font-size="22" font-weight="600" text-anchor="middle" fill="#20323C">Lower extracellular chemokine</text>
<text x="1345.0" y="522" font-family="Segoe UI,Arial,sans-serif" font-size="22" font-weight="600" text-anchor="middle" fill="#20323C">protein?</text>
<line x1="381" y1="420" x2="674" y2="420" stroke="#7951B2" stroke-width="3.5" stroke-dasharray="9,7"/>
<polygon points="674,420 660.4932934647098,426.52448301166845 660.4932934647098,413.47551698833155" fill="#7951B2" stroke="#7951B2" stroke-width="2"/>
<text x="527.5" y="378" font-family="Segoe UI,Arial,sans-serif" font-size="20" font-weight="400" text-anchor="middle" fill="#7951B2">matched viable epithelial input</text>
<line x1="926" y1="420" x2="1219" y2="420" stroke="#7951B2" stroke-width="3.5" stroke-dasharray="9,7"/>
<polygon points="1219,420 1205.49329346471,426.52448301166845 1205.49329346471,413.47551698833155" fill="#7951B2" stroke="#7951B2" stroke-width="2"/>
<text x="1072.5" y="378" font-family="Segoe UI,Arial,sans-serif" font-size="20" font-weight="400" text-anchor="middle" fill="#7951B2">primary protein not nominated</text>
<text x="85" y="562" font-family="Segoe UI,Arial,sans-serif" font-size="19" font-weight="600" text-anchor="start" fill="#BC653D">SOURCE-AMOUNT / SELECTION RIVAL</text>
<rect x="176.56" y="610.4" width="58.88" height="55.2" rx="11.96" fill="#E986A3" stroke="#20323C" stroke-width="2"/>
<ellipse cx="209.68" cy="639.84" rx="12.88" ry="11.040000000000001" fill="#8F6DA8" stroke="#20323C" stroke-width="1.5"/>
<ellipse cx="191.28" cy="625.12" rx="3.68" ry="3.68" fill="#FBE7C2" stroke="#FBE7C2" stroke-width="2"/>
<ellipse cx="174.72" cy="604.88" rx="13.8" ry="13.8" fill="white" stroke="#7951B2" stroke-width="2"/>
<text x="174.72" y="610.4" font-family="Segoe UI,Arial,sans-serif" font-size="14.72" font-weight="600" text-anchor="middle" fill="#7951B2">A</text>
<polygon points="333.44,648.0 327.41937659289846,669.4677618768236 304.0,678.36 280.58062340710154,669.4677618768236 274.56,648.0 280.58062340710154,626.5322381231764 304.0,617.64 327.41937659289846,626.5322381231764" fill="#EDCD69" stroke="#20323C" stroke-width="2"/>
<ellipse cx="307.68" cy="649.84" rx="12.88" ry="11.040000000000001" fill="#8F6DA8" stroke="#20323C" stroke-width="1.5"/>
<ellipse cx="289.28" cy="635.12" rx="3.68" ry="3.68" fill="#FBE7C2" stroke="#FBE7C2" stroke-width="2"/>
<ellipse cx="272.72" cy="614.88" rx="13.8" ry="13.8" fill="white" stroke="#BC653D" stroke-width="2"/>
<text x="272.72" y="620.4" font-family="Segoe UI,Arial,sans-serif" font-size="14.72" font-weight="600" text-anchor="middle" fill="#BC653D">B</text>
<text x="255.0" y="717" font-family="Segoe UI,Arial,sans-serif" font-size="22" font-weight="600" text-anchor="middle" fill="#20323C">Epithelial amount or support</text>
<text x="255.0" y="744" font-family="Segoe UI,Arial,sans-serif" font-size="22" font-weight="600" text-anchor="middle" fill="#20323C">changes</text>
<polygon points="679.24,664.68 727.08,629.72 759.28,624.2 825.52,610.4 781.36,647.2 748.24,654.56" fill="#8FC0AA" stroke="#20323C" stroke-width="2"/>
<ellipse cx="751" cy="639.84" rx="11.96" ry="6.44" fill="#80699C" stroke="#20323C" stroke-width="1"/>
<polygon points="777.24,674.68 825.08,639.72 857.28,634.2 923.52,620.4 879.36,657.2 846.24,664.56" fill="#8FC0AA" stroke="#20323C" stroke-width="2"/>
<ellipse cx="849" cy="649.84" rx="11.96" ry="6.44" fill="#80699C" stroke="#20323C" stroke-width="1"/>
<text x="800.0" y="717" font-family="Segoe UI,Arial,sans-serif" font-size="22" font-weight="600" text-anchor="middle" fill="#20323C">Fibroblast survival / mixture shifts</text>
<polygon points="1285,652 1295,636 1315,640 1323,657 1305,673" fill="#D3E5E8" stroke="#168F91" stroke-width="2"/>
<polygon points="1327,628 1337,612 1357,616 1365,633 1347,649" fill="#D3E5E8" stroke="#7951B2" stroke-width="2"/>
<polygon points="1370,655 1380,639 1400,643 1408,660 1390,676" fill="#D3E5E8" stroke="#168F91" stroke-width="2"/>
<text x="1345" y="650" font-family="Segoe UI,Arial,sans-serif" font-size="30" font-weight="600" text-anchor="middle" fill="#7951B2">?</text>
<text x="1345.0" y="717" font-family="Segoe UI,Arial,sans-serif" font-size="22" font-weight="600" text-anchor="middle" fill="#20323C">Lower total collected protein</text>
<line x1="381" y1="642" x2="674" y2="642" stroke="#BC653D" stroke-width="3.5" stroke-dasharray="9,7"/>
<polygon points="674,642 660.4932934647098,648.5244830116685 660.4932934647098,635.4755169883315" fill="#BC653D" stroke="#BC653D" stroke-width="2"/>
<text x="527.5" y="600" font-family="Segoe UI,Arial,sans-serif" font-size="20" font-weight="400" text-anchor="middle" fill="#BC653D">different cell sources</text>
<line x1="926" y1="642" x2="1219" y2="642" stroke="#BC653D" stroke-width="3.5" stroke-dasharray="9,7"/>
<polygon points="1219,642 1205.49329346471,648.5244830116685 1205.49329346471,635.4755169883315" fill="#BC653D" stroke="#BC653D" stroke-width="2"/>
<text x="1072.5" y="600" font-family="Segoe UI,Arial,sans-serif" font-size="20" font-weight="400" text-anchor="middle" fill="#BC653D">no within-state change</text>
<text x="1072.5" y="624" font-family="Segoe UI,Arial,sans-serif" font-size="20" font-weight="400" text-anchor="middle" fill="#BC653D">required</text>
<text x="60" y="844" font-family="Segoe UI,Arial,sans-serif" font-size="19" font-weight="600" text-anchor="start" fill="#168F91">WHAT THE READOUTS WOULD LET YOU DECIDE</text>
<rect x="60" y="863" width="476" height="162" rx="12" fill="#F5F7FA" stroke="#F5F7FA" stroke-width="2"/>
<text x="80" y="895.0" font-family="Segoe UI,Arial,sans-serif" font-size="22" font-weight="600" text-anchor="start" fill="#20323C">Name the primary protein</text>
<text x="80" y="933" font-family="Segoe UI,Arial,sans-serif" font-size="19" font-weight="400" text-anchor="start" fill="#20323C">A chemokine panel label is not a frozen primary</text>
<text x="80" y="958" font-family="Segoe UI,Arial,sans-serif" font-size="19" font-weight="400" text-anchor="start" fill="#20323C">endpoint.</text>
<rect x="562" y="863" width="476" height="162" rx="12" fill="#F5F7FA" stroke="#F5F7FA" stroke-width="2"/>
<text x="582" y="895.0" font-family="Segoe UI,Arial,sans-serif" font-size="22" font-weight="600" text-anchor="start" fill="#20323C">Collection and cell amount</text>
<text x="582" y="933" font-family="Segoe UI,Arial,sans-serif" font-size="19" font-weight="400" text-anchor="start" fill="#20323C">Output requires calibrated collection/recovery and</text>
<text x="582" y="958" font-family="Segoe UI,Arial,sans-serif" font-size="19" font-weight="400" text-anchor="start" fill="#20323C">comparable viable sources.</text>
<rect x="1064" y="863" width="476" height="162" rx="12" fill="#F5F7FA" stroke="#F5F7FA" stroke-width="2"/>
<text x="1084" y="895.0" font-family="Segoe UI,Arial,sans-serif" font-size="22" font-weight="600" text-anchor="start" fill="#20323C">Keep the focal scope</text>
<text x="1084" y="933" font-family="Segoe UI,Arial,sans-serif" font-size="19" font-weight="400" text-anchor="start" fill="#20323C">The failed broad predictor does not support</text>
<text x="1084" y="958" font-family="Segoe UI,Arial,sans-serif" font-size="19" font-weight="400" text-anchor="start" fill="#20323C">generality across all identity perturbations.</text>
<text x="60" y="1059" font-family="Segoe UI,Arial,sans-serif" font-size="19" font-weight="400" text-anchor="start" fill="#5B6D77">Current evidence: The focal RNA effect is already published. Protein output is unmeasured; immune recruitment and secretion rate are not established.</text>
<text x="60" y="1110" font-family="Segoe UI,Arial,sans-serif" font-size="17" font-weight="600" text-anchor="start" fill="#168F91">Canonical card</text>
<a href="https://github.com/xorca0711/scRNA_seq/blob/073a69a758f25f988ecc18402477efa268c00927/RESEARCH_QUESTIONS.md#a22"><rect x="60" y="1092" width="113.24755859375001" height="25" fill="transparent"/></a>
<text x="330" y="1110" font-family="Segoe UI,Arial,sans-serif" font-size="17" font-weight="600" text-anchor="start" fill="#168F91">Dossier</text>
<a href="https://github.com/xorca0711/scRNA_seq/blob/073a69a758f25f988ecc18402477efa268c00927/docs/research_dossiers/A22.md"><rect x="330" y="1092" width="56.76904296875001" height="25" fill="transparent"/></a>
<text x="485" y="1110" font-family="Segoe UI,Arial,sans-serif" font-size="17" font-weight="600" text-anchor="start" fill="#168F91">Conditional package</text>
<a href="https://github.com/xorca0711/scRNA_seq/blob/073a69a758f25f988ecc18402477efa268c00927/docs/research_dossiers/packages_2026-10-03/A22.md"><rect x="485" y="1092" width="158.13818359375" height="25" fill="transparent"/></a>
<text x="770" y="1110" font-family="Segoe UI,Arial,sans-serif" font-size="17" font-weight="600" text-anchor="start" fill="#168F91">Novelty comparison</text>
<a href="https://github.com/xorca0711/scRNA_seq/blob/073a69a758f25f988ecc18402477efa268c00927/docs/research_dossiers/NOVELTY_SPECIFICITY_APPLICATION_2026-10-03.md#a22"><rect x="770" y="1092" width="155.19970703125" height="25" fill="transparent"/></a>
<line x1="60" y1="1125" x2="1540" y2="1125" stroke="#D9E1E7" stroke-width="2"/>
<text x="60" y="1150" font-family="Segoe UI,Arial,sans-serif" font-size="16" font-weight="400" text-anchor="start" fill="#5B6D77">v2 | qualitative hypothesis illustration | cell numbers, size and color are not data</text>
<text x="1540" y="1150" font-family="Segoe UI,Arial,sans-serif" font-size="16" font-weight="400" text-anchor="end" fill="#5B6D77">25 / 26</text>
<text x="60" y="1177" font-family="Segoe UI,Arial,sans-serif" font-size="16" font-weight="400" text-anchor="start" fill="#5B6D77">Source: integrated main 073a69a | No new analysis, accepted mechanism or confirmed laboratory access</text></svg>